<?xml version="1.0" encoding="UTF-8"?>
<svg version="1.1" viewBox="0 0 2000 992" width="1280" height="1280" xmlns="http://www.w3.org/2000/svg">
<path transform="translate(1255,16)" d="m0 0h7l3 31 9 100 5 3 41 16 47 18 21 7 57 11 17 5 49 19 27 11 98 42 27 11 54 19 50 18 23 6 51 12 133 39 14 5v14l-3 46-8 108-5 69-1 8-10 5-64 23-38 14-26 10-41 16-36 12-35 11-32 8-37 8-15 5-43 19-21 7-54 14-36 12-48 17-56 19-60 18-48 16-2 1-2 11-11 81-2 2-116 8-95 6h-11l-1-5-1-32v-35l-168 23-12 1-81-7h-15l-205 21-14 1-1-1-1-13-1-40v-32l-30 11-55 20-48 18-26-3-136-18-8-3-18-13-19-14-18-13-19-14-18-13-38-28-5-4-6-12-11-26-23-54-21-49-4-13-7-61-7-66v-10l5-63 1-2h-14v-26l3-67 7-132 4-74 1-7 1-1 25-2 201-11 29-3 178-24 82-11 30-4h4l-1 13-5 25-1 2 17-6 44-17 47-18 32-12 17 5 34 13 35 13 96 36 20 8 8 6 12 11 49 46 12 11 8 7v2l4 2 10 10 11 9 5 3 1-27 5-40 15-104 3-3 72-16 114-25z" fill="#F0F0EF"/>
<path transform="translate(549,76)" d="m0 0h2v76h111l3 1v-77h2v75l5 1 109 1v-65l2-1 1 65h111v-20h3l1 20 28 1-2 2h-27v68h-3v-51l1-9v-8l-112 1-1 28 9 3 21 11 19 12 20 14 10 6v1l-49 8-17 3-5-1v-4h-7l4 2v4l-16 4-94 18v14l9 114 2 24 3 32 22-2-2 6-5 8-11 25-5 11h44v2l-46 1-11 23-9 16-3 10h-2l-2 5-4 9-10 13-9 8-4 1-1 5-8 16-3 7h42v-61l2-1 1 61h34l34 1v2h-69l1 48v23l-1 19 11-1 1 2v122l-7-1-5-2 1 16h113v-6h2l1 6h112l-1-5 3-1 1 6 68 1 22 2v1h-90l-1 70h-3v-72l-6 1v2h-4v-2h-102l1 44 2 5-2 2-1 20-3-1v-70l-58 1-54-1-2 50h5v3l-3 1-1 25h-2l-1-26h-13l-2 2-2-4 6-1h12l-1-50h-113v77l4-1 2 4-6-2v11l-2 1v-90l-112 1-1 40-2 1-1-3 1-39-63 1-49-1v44h-3v-43l-112-1v13h-2l-1-12-1-1h-12l-4-2 17-1v-102l-9-8-104-1v26h-2l-1-25-9-1-2-2 11-1v-111l-53-1v-2h54l-1-105-4 1-2 1 2-4 5-1v-6l-13 1-13 2-2 2-1-4-38-1v-2l11-1 2-1-1-6 3 1 1 5 6 1h25l5-1h7l1-2 6 1 1-109h-2l1-3 1-111h-26l-41-1v-1h67v-114h-16l-46-1v-1h62v-30h2l1 29h63l7-1 43 1v-35h2v36l62-1 4-4-1 4h45l3 1-1-45h3l1 13 5 4 3 5-1 3-4-6v-2l-4-1 1 3v25l55 1-1-5h3v4h53l1-61 3 1v60l112 1-1-48-3 3-1-4 4-3z" fill="#181617"/>
<path transform="translate(933,235)" d="m0 0h2v34h52v1h-52v24l7 11 6 18v3l22-12 12-6 12-4 7-1v-58h2l1 24h8l-2 2-6 1-1 30 23-5 16-3 7-1 2-1 27-2h25l23 3 7 2v-25l-2-1 2-2v-27l2-1 1 57 18 6 13 7 13 10 12 10 1 4-5 1-2 4 1 3 3 1-3-5 5-3 6 1 10 12 6 8 9 14 5 11 5 20 20 1v2h-10l-1 3v-3h-7l-2-1 3 24 1 39 1 4 1 9 2 36-2 9-1 5-1 4 29 1-1-2v-128l-8 1-1 2-1-5h10v-63h2v63h20v2h-20l1 129 23 1 1 2-9 1-2 2-1-2-13-1v130h104v2h-104v34h16l10 5 6 7-1 4-1 3 8-1v13l17 1-1-10h2v10h10v-48l2-5 4-2-1 3h-2v2l4 1h-5l-1 49h23l-1 2h-24l-20 1-2 7-2-1 1-6-4-1-2 6h-2v2l5-1 1 2-2 1-3 9-8 10-8 6-15 7h-3v24l-1 28-2 1v-29h-19l-43-1-1 3-2-2h-20l-3 2v-2h-29l-13-1v31l-2 1-1-9-1-4h-3l-3-3-4-14-5-1-48-1 1 14 3 3 1-3v4h-5l-1 4-1-24h52l3-1 2 1 10 1v-23l-24 2-26 4-14-1-1 2v6l-3-2 1-7-9-3-16-8-9-7-6-10-1-4v-10l1-3h-21l3 7 1 5v8l-3 9-3 5v30h62v1h-62v33l-1 9h-1v-42l-45 1 4 9v5l-2-3-3-6-2 4-7 1 3-2 4-4v-3h-18v9l4 1h-3l-1 19h-2l-1-30h-28l-7-1v-1h36v-26h-22l-40 5-5-1-23-3h-20l-19 4-1 21h66v-8h1l1 7 21 1v1l-30 1h-16l-43-1v31l-2 1v-32h-65l1 3v26h-2l-1-28h-49l-1-2 5-1h46v-35l2-1v37h64v-21l-8 2h-19l-15-5-15-9-8-6-4-10-1-10 1-5h-31l1 4-1 3h-2l-1 2 1-9h-15l-2-2 9-1 9 1v-8l-1-2 3 1-1 9h32l1-6 8-11 6-7 11-4 14-2 12-5 11-4 2-7-2-13 1-6-26-1h-33l-1 41-1 15h-1v-56h-34l-19-1v-1h53v-12h2v11l61 1-1-20-1-5-2-1v-2h2v-27l-1-14 1-27-2-8v-20l1-6h-55l-1-2h55l-1-23 2-10-3-1 2-3 2-16v-8l-1-8 2-25v-11l-4-4h5v-5h-8l3-6 1 3 3 1 1-1v-8l-1-4-60-1-1 2-1-1-42-1-3-2 37-1 70 1-5-16v-3l-6 3-7 3-14-1-9-6-12-12-7-11-2-5v-20l6-10 7-8 7-5 15-6 19-3h12v-33h-34v6l-2 1v-11l2-6 4-1-3 5-1 5h34v-23l2 3v53h18l17-3 20-5 11-1v-6l2 4 23-3 11-2h13l10 4 4 3 1-21h-32v-1h32z" fill="#191718"/>
<path transform="translate(1070,101)" d="m0 0 2 3 6 11 2 12 2 1-2 5h31l2-6 7-9 3-3h2l1-3 6-3 5 3 2-7 4-1h18l9 2 13 5 10 6v-13h1l1 5v10l4 6-2 5-1 2h18l2-2v3l14-1 39 1v1l-11 1-23 1-2 4-1-3 1-2h-32l1 16-2 5v36l9 7 14 8h2l5-7 1 2-5 8 9 2 20 8 14 5 25 9 9 3 18 8 15 7 13 4 24 8 4 2v-51h-45l-3 1-30-1-2-1v20l-2-1v-19l-49 1-4-2 53-1v-36l2-3v40h80v-19l2-2v21h83l-2 2v50l1 3-1 2-1 15 10 3 23 8 18 8 22 11 7 3 14 7 33 14 28 13 3 1v-58h-78v21h-2v-21h-29l-19-1v-1h48v-50l2-1v51h79l-1-2v-13l2-3v18h38v1l-5 1h-33v59l8 3 31 9 16 5 14 2 19 8 23 10 26 11 14 4 6 1v-32h-79v-67l2-1v66h78v-37l2-1v27h5v1h-5v8l-1 2h79v-17l2-1v18h61v2h-60v46l13 2 2-1 3 3 15 8 10 8 12 12h22v-74h2v74h41l-2 2h-38v10l2 1v2l-2 1-1 41v131l-2 1v-76l-4-1h4v-29l-2-1h2v-57l-5 1v-2h5v-22h-14l-6 1 7 12 4 11 1 5v23l-4 16-5 14-10 19-12 22-10 13-10 8-12 6-7 1v9l2 1h-2v31l4 1-2 2-1 4-1 13-3-1 1-14-3-3h3l-1-42-26 4-20 6-19 5-12 4v73l-80-1v26l-2 1v-28h-9l4-2 5-1-1-40-26 7-30 5-19 7-2 1v19l1 25 3 2-3 1-1 27h-2v-51l-21 1-15 3-12 6v-4l12-5 16-4v-1l10-2v3l-4 1 14 1v-5l-7 1-1-2 2-1h6v-14l-8 3-19 10-17 8-25 8 8 1 7 4-2 1-5-2-1-1-7 1-2 1-1-5-5 1-1 7v63l-2 2v-72l-15 4-21 5-30 9-10 4h-2l1 48 11 1 61 1-1 2h-54l-17 1-1 22-2 1v-24l-12 2-5-1-14-1v3l-3-1v-2h-44v50h-2v-50h-25v-2h25v-21l-19 6h-3l5-25 18-84 4-18 1-3-4 1-77 6h-5l-3-43 1-3 14-4 2-4v4l33-10 10-6 10-7 12-7v-50l1-55-2 1h-70l-1 4-2-2-4-1 1-3h78v-78l-6-1-12-6-38-12-24-5v18h-1l-1-19-10-1-6-2-4-4-12-18-10-14-8-12-8-11-2-4-5-2-16-11-27-18-20-13-33-5-34-4-2-4-1-12-1 3v9l-2 2-1-4 1-10h-38v16h-1l-1-16h-20l-5-1v-1h26v-50l2-1v49l-1 2h42v-20l1-22 3-16 7-20h-53l-1 3-1-3-11-1v-1l35-1-1-3h2l-4-14-4-5v-2l-2-1h2z" fill="#191718"/>
<path transform="translate(434,270)" d="m0 0h82l-3 5-9 12-12 17-10 15-11 15-10 14-12 18-7 11-9 14-11 23-8 15-5 16-1 7-1 20-10 13-8 11-6 1h-36-3-21l-2-1-2 1h-63l-1-1-1-8v-16l1-15 5-22 6-15 10-19 9-13 11-13 14-14 8-6 3-1 5-5 26-17 18-10 44-22 7-7 12-22z" fill="#F0F0EF"/>
<path transform="translate(328,155)" d="m0 0h105l1 1v35l-1 6 1 9 1-1v-13l1-1h8v-2l-8 1v-34l1-1h73l4 1-1 4-1 2h6l-1-2h-3l1-4 22-1h12v12h-4l-7-7 4 5 5 4 1 4 1 1v64l-16 15-7 7-7 8-1 1h-82l1-7 3-14v-16l-2-8-3-7-9-10-6-5-11-5-15-4-12-2h-28l-18 4-10 3h-4v-38l4-4z" fill="#F0F0EF"/>
<path transform="translate(1007,534)" d="m0 0h31l30 1 8-1 6 2 2 36v39l2 49v5h-83v-130z" fill="#F0F0EF"/>
<path transform="translate(1058,402)" d="m0 0h6l3 2v2h3l8 10 4 10 2 18v41l-2 27-1 5 1 7v9h-79v-130h49z" fill="#F0F0EF"/>
<path transform="translate(551,730)" d="m0 0h82l-3 9-5 18-1 6v19l4 12 7 11 9 8 12 6 9 4v18l-13 1h-100l-2-2z" fill="#F1F1F0"/>
<path transform="translate(92,271)" d="m0 0h20l3 8 8 20 6 9 8 7 10 5 6 2-9 18-7 17-4 16-1 9-1 3v11l-1 10 3-9 2 1-1 7-3 8-1 8-1 3-1-1-1-9-1 1-1 15v1l3-5 7-3 6-6 4 1 7 9 2 6v9l-6 5-9 4h-6l-3-9v-2l-5-2-2-1 1 17 1 9-2 6-10-1-4-1 15 5 1 24-1 1h-32l-1-1v-224z" fill="#F1F1F0"/>
<path transform="translate(92,155)" d="m0 0h67l-2 8-1 3 5-3 6-4h3v-3l2-1h33v14 3 37l-27 4-24 7-20 8-9 6-5 5-6 10-2 10v10h-21v-113z" fill="#F1F1F0"/>
<path transform="translate(621,615)" d="m0 0h44v92l-16 6-8 6-7 9h-84v-3l6-9 9-11 11-14 5-5 3-7 10-16 13-21 13-26z" fill="#F1F1F0"/>
<path transform="translate(547,729)" d="m0 0 2 1v112h-112l-1-1v-48l3-2 17-4 20-7 18-8 23-13 13-9 8-9 8-11z" fill="#F1F1F0"/>
<path transform="translate(92,615)" d="m0 0h46l3 9 6 20 9 24 8 16 10 19 8 12 9 11 1 2h-100l-1-1v-111z" fill="#F1F1F0"/>
<path transform="translate(207,742)" d="m0 0 5 2 16 12 22 14 26 15 15 6 22 5 7 2v43l-3 1h-109l-1-1v-38l3-1-3-1z" fill="#F1F1F0"/>
<path transform="translate(1380,454)" d="m0 0h46l31 1 1 5-1 75 1 3-14 4-5 2-1 4-2-2 1-2-26 5-8 3-17 4-5 2-3-1 1-102z" fill="#F1F1F0"/>
<path transform="translate(935,397)" d="m0 0 2 1 2 4 8-1v-3h6l2 4 4-1h5l-2 5h-3l-1 1h-9l2-6-3 1-2 3-8 1-4 2-1 5 2-4 3-2h4v8l2 1 3-1 3-5 1 4v3l14-11 7-4 29 1v130h-50l-1-6v-60-2l-1-1-2-16-1-4v-12l1-12-4-2v9l-3 2-1 4h-2l-2-6v-11h-5l-3 3-3 1 1 4 9 2-2 2-16-1-1-4 6-1v-4l6-5h2v-5l-8-1v-2h12v-4h2z" fill="#F0F0EF"/>
<path transform="translate(951,535)" d="m0 0h50v130h-52l-1-1v-5l-3-1 2-2-1-7-2-18v-12l3-5 4-11 2-12v-16l-1-16-1-3z" fill="#F0F0EF"/>
<path transform="translate(1148,836)" d="m0 0h49l-2 21h93l-1 2h-70v22l1 23-1 8v23l-1 2h40l-2 2-37 1v18l-2 1-1-9 1-11h-78v26h-2v-26h-77l-1 32-2 1-1-33h-17l-2-2h20v-52l1-5h1v56h76l1-10v-12l2-7h1l-1 30h79v-34h-4v-2h4l-1-42h-19v12l-3 10-3 5-10 7-16 8-11 4-5-1-1-1-2 3h-9l-11-5-9-7-6-9-7-14-3-11-8-1h-17l-5 1-2 3v-3l-6 1-4-1-25-2v-1l25-1 41 1-2-5v-15h48l1 7v5l2-1 1-10z" fill="#1B191A"/>
<path transform="translate(208,155)" d="m0 0h111l1 1v43l-5 3-16 5-14 3-20 2h-22l-36-3v-34l2-1 2 1h7l-10-3-1-3v-13z" fill="#F1F1F0"/>
<path transform="translate(256,499)" d="m0 0h63l3 2v-2h64l-2 4-15 14-4 7 5 2-1 4-5-1v-3l-8 12-12 10-9 6-8 5h-5l-1-46-1 46-1 1h-27l-12-3-8-6-11-12-4-12-2-17v-10z" fill="#F2F2F1"/>
<path transform="translate(1475,454)" d="m0 0h25l37 1v49l-28 11-20 11-4 4-3-1-8 4-14 5-1-2v-81z" fill="#F1F1F0"/>
<path transform="translate(428,793)" d="m0 0h6v48l-1 1h-110l-1-1v-42l1-1h26l19-1 19-3v2l33-2z" fill="#F1F1F0"/>
<path transform="translate(551,155)" d="m0 0h114v17l-8 3-18 7-16 8-20 11-17 10-14 9-20 15h-1z" fill="#F0F0EF"/>
<path transform="translate(1379,377)" d="m0 0 5 1 14 5 21 8 19 10 21 12-2 1v39h-78z" fill="#F2F2F1"/>
<path transform="translate(1385,214)" d="m0 0h72l1 20-1 23-4-4-6-12h-1l6 11 2 4-1 4 4 2 1 11v10l-7-1-25-8-21-4-1-4-1 4-9-1-6-2h-2-6l-1-1v-31l5-1-5-1v-18z" fill="#F0F0EF"/>
<path transform="translate(1773,627)" d="m0 0h4v69h-55l-23-1-1-42 12-4h5l6-3 13-4 29-11z" fill="#F1F1F0"/>
<path transform="translate(92,499)" d="m0 0h31l2 1v13l-1 4-6 2v3l4-3h2l2 19 2 25 4 24 5 22-1 4h-44l-1-1v-49l7-3v-6l-3 6-3 1-1-5v-56z" fill="#EDEDEC"/>
<path transform="translate(1236,534)" d="m0 0h11l18 1v130h-27l-4-28v-27l1-9-4-25-1-10v-18l4-7v-5z" fill="#EDEDEC"/>
<path transform="translate(1201,858)" d="m0 0h13l1 1v42h-4v2h4v34h-79v-23l1-8 7-1 3-3 1 2 7-1 17-7 13-8 4-2 2-5 3-10 1-12z" fill="#EDEDEC"/>
<path transform="translate(1490,294)" d="m0 0h39l8 1v21h2v-21l18-1 60 1v58l-5-1-35-16-28-12-10-5-15-7-22-11-12-5z" fill="#F2F2F1"/>
<path transform="translate(1243,214)" d="m0 0h52l1 19 1-19 33 1 6-1h14l27 1v51l-10-3-26-9-10-3-28-13-9-3-28-10-11-4-12-5z" fill="#EBEBEA"/>
<path transform="translate(1024,666)" d="m0 0h36l7 1v37l7 2 2 6h2l1 5h-3l-2-6-8-5-17 1-7 3-7 8-6 11-2 4h-23l-2-2 1-64z" fill="#F2F2F1"/>
<path transform="translate(1540,428)" d="m0 0 10 4 21 14 11 6 7 3 27 9 1 1v17l-15 3-19 7-44 11v-48l39-1-39-1v-24z" fill="#F1F1F0"/>
<path transform="translate(1804,374)" d="m0 0h53l1 3-1 44h-19l-17-4-10-3-13-3-19-3-1-33h24z" fill="#EFEFEE"/>
<path transform="translate(1184,773)" d="m0 0 2 1 15 1h3l36 3h24l1 1v20h-130v-23l46-2z" fill="#F1F1F0"/>
<path transform="translate(1456,728)" d="m0 0 2 1-1 38-7-2v3h7v8l-6 2-72-1v-22l9-3 29-9z" fill="#EEEEED"/>
<path transform="translate(1460,413)" d="m0 0 10 4 6 1-1 3-5 1 2 1 4-1 2 2v-5l19 2 26 3 13 3 1 1v25h-78v-39z" fill="#F1F1F0"/>
<path transform="translate(738,666)" d="m0 0h43l16 1 1 3-1 5 2 12-2 7-7 3-17 7-14 2-11 4-12 15-1-2 1-15 1-41z" fill="#F2F2F1"/>
<path transform="translate(950,666)" d="m0 0h16l35 1v60h-3l-3-5-6-9-1-3-9-3-14-3-8-1-5-6-4-8v-12l1-10z" fill="#F2F2F1"/>
<path transform="translate(667,155)" d="m0 0h114v27l-5-1-25-7-14-3-28-2h-16l-19 2-7 1z" fill="#F2F2F1"/>
<path transform="translate(1e3 771)" d="m0 0h1v28h-26l-2-1-3 1-17 1h-17l-2-2v-21l1-2 5 1 11 5 15 4 18-4 11-6z" fill="#ECECEB"/>
<path transform="translate(781,835)" d="m0 0h2l1 6h112l-1-5 3-1 1 6 68 1 22 2v1h-90l-1 70h-3v-72l-6 1v2h-4v-2h-102l1 44 2 5-2 2-1 20-3-1v-70l-58 1-53-1v-2l9-1h103z" fill="#181617"/>
<path transform="translate(1243,666)" d="m0 0h10l12 1v35l-19 3-4 1-5-2h-2v-3l5 1-2-35z" fill="#F1F1F0"/>
<path transform="translate(1202,857)" d="m0 0h86l-1 2h-70v22l1 23-1 8v23l-1 2h40l-2 2-37 1v18l-2 1-1-9 1-11h-78v26h-2v-26h-77l-1 32-2 1-1-33h-17l-2-2h20v-52l1-5h1v56h76l1-10v-12l2-7h1l-1 30h79v-34h-4v-2h4l-1-42h-12z" fill="#181617"/>
<path transform="translate(1018,383)" d="m0 0h10l16 6 16 9 2 3h-59v-15z" fill="#F2F2F1"/>
<path transform="translate(1265,338)" d="m0 0h2v63h20v2h-20l1 129 23 1 1 2-9 1-2 2-1-2-13-1v65h-2v-65h-18v-2h19l-1-2v-128l-8 1-1 2-1-5h10z" fill="#181617"/>
<path transform="translate(1937,379)" d="m0 0h2v74h41l-2 2h-38v10l2 1v2l-2 1-1 41v131l-2 1v-76l-4-1h4v-29l-2-1h2v-57l-5 1v-2h5v-22h-11l-1-2h12z" fill="#181617"/>
<path transform="translate(1698,307)" d="m0 0h1v66h78v-37l2-1v27h5v1h-5v8l-1 2h79v-17l2-1v18h61v2h-60l-2 2-1-3-4 1h-49l-5 1-21-1v5l-2-2v-3h-79v-67z" fill="#181617"/>
<path transform="translate(1538,242)" d="m0 0h1v51h79l-1-2v-13l2-3v18h38v1l-5 1h-33v57h-2v-57h-78v21h-2v-21h-29l-19-1v-1h48v-50z" fill="#181617"/>
<path transform="translate(1070,666)" d="m0 0 15 1 1 23 1 5-1 2-17 4-1-1v-20l1-13z" fill="#F2F2F1"/>
<path transform="translate(225,236)" d="m0 0h21v4l-2 2h-15v-2l-10 3-1 7-7-2-8-1h-23l-8 2-3 2-3-1 7-10 4-1v2l21-1 16-3z" fill="#E7E7E6"/>
<path transform="translate(935,397)" d="m0 0 2 1 2 4 8-1v-3h6l2 4 4-1h5l-2 5h-3l-1 1h-9l2-6-3 1-2 3-8 1-4 2-1 5 2-4 3-2h4v8l2 3-1 9-3 2-1 4h-2l-2-6v-11h-5l-3 3-3 1 1 4 9 2-2 2-16-1-1-4 6-1v-4l6-5h2v-5l-8-1v-2h12v-4h2z" fill="#EFEFEE"/>
<path transform="translate(883,407)" d="m0 0 6 1 5 9 2 1v3h3l2 6 2 1v2h2v-3h-2v-6h3l7 11 9 10v2h-5l-2-1-4 1-1-1-3 3-3-1 1-5 5-5-3 2-5-1-3-5-4-2-2 4-3 1 1-5h-2v2l-6-1-1-5h3v4h2v-3l1-1-2-1v-2h-2v-2h2l1-3h2l-2-7-5 2z" fill="#DEDEDD"/>
<path transform="translate(1e3 777)" d="m0 0h2v22h62v1h-62v33l-1 9h-1v-42l-45 1 4 9v5l-2-3-3-6-2 4-7 1 3-2 4-4v-3h-18v9l4 1h-3l-1 19h-2l-1-30h-28l-7-1v-1l37-1 2 1h17l17-1 4-1 1 1 26 1z" fill="#181617"/>
<path transform="translate(1620,465)" d="m0 0 32 8 11 4v2l-11 2h-33v-15z" fill="#F2F2F1"/>
<path transform="translate(1326,261)" d="m0 0h7l2 2 1 12-4 7-7 1-7-5-3-3-3 1-1 7h-5l3-10 8-5 6-5z" fill="#E3E3E2"/>
<path transform="translate(748,176)" d="m0 0 11 1 9 4-1 5-3 3-17 4-9 4-15 10-4 5-1 3-4-1v-3l-8 4-3-1 10-7 19-9 9-8h2l1-2 10-2 10-1-11-1v-2l-5-2z" fill="#F2F2F1"/>
<path transform="translate(320,356)" d="m0 0h2l1 28-1 109h-1l-1-6v-102l-11 1-2 7-2-1v-7h-14v-1l14-1h15z" fill="#181617"/>
<path transform="translate(1136,51)" d="m0 0 1 2 86-1 11 1 1-2v2h25v1l-20 1h-16l-7-1v60l-1 15h-1l-1-74h-75l-2-1-1 56h-1v-56l-21 1-1-2 19-1z" fill="#181617"/>
<path transform="translate(1173,861)" d="m0 0 3 1v2l3 1 1 5h2v7l-5 5-8 2-3-1-1-4 10-2 3-1v-1l-8 2-7-1-2-1 1-5 5-4z" fill="#DEDEDD"/>
<path transform="translate(1457,414)" d="m0 0h2v39h40v1l-11 1h-29v5l-2-1v-4h-75v-2h75z" fill="#181617"/>
<path transform="translate(1296,173)" d="m0 0h1v40h52v1l-5 1h-12l-3 1-30-1-2-1v20l-2-1v-19l-49 1-4-2 53-1v-36z" fill="#181617"/>
<path transform="translate(735,653)" d="m0 0h2v11l43 1v2h-42l-1 41-1 15h-1v-56h-34l-19-1v-1h53z" fill="#181617"/>
<path transform="translate(1617,688)" d="m0 0h1l1 5 1 25 3 2-3 1-1 27h-2v-51l-21 1-15 3-12 6v-4l12-5 16-4v-1l10-2v3l-4 1 14 1v-5l-7 1-1-2z" fill="#181617"/>
<path transform="translate(736,762)" d="m0 0h1v37h62v1h-63l1 3v26h-2l-1-28h-49l-1-2 5-1h46v-35z" fill="#181617"/>
<path transform="translate(1056,162)" d="m0 0h1v49l-1 2h41l-1 5v9l-2 2-1-4 1-10h-38v16h-1l-1-16h-20l-5-1v-1h26v-50z" fill="#181617"/>
<path transform="translate(203,551)" d="m0 0h4l-1 4-9 6-7 6h-2l-2 4-5 8-3 5-5-5-3-5 1-3 10-2 9-7 5-5z" fill="#E8E8E7"/>
<path transform="translate(999,387)" d="m0 0 2 1 1 13h-27l5-5 16-8z" fill="#F2F2F1"/>
<path transform="translate(1714,629)" d="m0 0 2 2-14 9-3 3h-2l-1 4-8 1-4 1-15 8-5 3-2-2 11-8 10-5 5-2h3v-2l3 1 2-1-4-1-3 1 1-3 12-2z" fill="#F2F2F1"/>
<path transform="translate(933,235)" d="m0 0h2v34h52v1h-52v20l-2 1v-21h-32v-1h32z" fill="#181617"/>
<path transform="translate(801,244)" d="m0 0 2 3v52l-2 1v-32h-34v6l-2 1v-11l2-6 4-1-3 5-1 5h34z" fill="#181617"/>
<path transform="translate(269,233)" d="m0 0 4 1 1 1 21 1v2l-8 2h-16-3-9l-5 2-4-1 2-4 1-1h13l2 1z" fill="#F2F2F1"/>
<path transform="translate(1457,213)" d="m0 0h5l-2 2v50l1 3-3 4-2-10-4-2 1-4-6-12-3-4 1-2 6 8 5 10 1-24z" fill="#181617"/>
<path transform="translate(938,407)" d="m0 0h4v8l2 3-1 9-3 2-1 4h-2l-2-6v-11l-3-1 2-2 2-5z" fill="#D0D0CF"/>
<path transform="translate(897,164)" d="m0 0h1v59h-3v-51l1-7z" fill="#181617"/>
<path transform="translate(1506,621)" d="m0 0h7l3 2 5-1-1 10-3 3h-2l-1-4 2-3h2v-2l-3 1-2 6h-3v-2l-5 3h-2-7l-3-4 3-1 4 2 1-4 3 1 2 1 4-1-2-5z" fill="#F2F2F1"/>
<path transform="translate(233,266)" d="m0 0h5l4 6-1 4h-4l-1 1 7 2v4h-7l-3-1-4 1v-3l3-2 2-6 2-3-5 2-10 2v-2l8-4z" fill="#F0F0EF"/>
<path transform="translate(1298,453)" d="m0 0h77v2h-70l-1 4-2-2-4-1z" fill="#181617"/>
<path transform="translate(1119,797)" d="m0 0 7 2-2 4 4 13 3 3h-3l-3-3-4-14-5-1-48-1 1 14 3 3 1-3v4h-5l-1 4-1-24h52z" fill="#181617"/>
<path transform="translate(181,539)" d="m0 0 2 2-6 5-17 5-10 2 4-5 14-7z" fill="#F2F2F1"/>
<path transform="translate(1289,373)" d="m0 0h79l-2 2-70 1-7-2z" fill="#181617"/>
<path transform="translate(243,290)" d="m0 0h6l-3 5-7 5-2 5v6l1 3-5-1-1-6h-5l-1-3 6-4 8-8z" fill="#EFEFEE"/>
<path transform="translate(170,363)" d="m0 0 9 2 4 3 7 1 4 1-6 5-13-1-5-3-1-7z" fill="#DBDBDA"/>
<path transform="translate(449,685)" d="m0 0 4 2 7 6v2l5 2 6 7 5 10-5-2-15-15-7-11z" fill="#F2F2F1"/>
<path transform="translate(1462,614)" d="m0 0 3 1v2l4 2 2 5-5-2 1 2v11l2 9-4-2-3-3-1-8 1-10-1-2z" fill="#EFEFEE"/>
<path transform="translate(201,452)" d="m0 0 4 2 3 10 4 3 3-3 4 1-2 5-7 1-1 3-4-1-2-7-2-5z" fill="#F2F2F1"/>
<path transform="translate(1223,692)" d="m0 0 1 4-2 4-2 14-3 1-2 4-3 1 1-4 2-3h-2l-1 3-5 3-2 1 2-4 6-7z" fill="#F2F2F1"/>
<path transform="translate(549,76)" d="m0 0h2v57l-1 13h-1l-1-41-3 3-1-4 4-3z" fill="#181617"/>
<path transform="translate(1201,797)" d="m0 0 1 2h43v1h-42l-1 3-2-2h-20l-3 2v-2h-20v-2h44z" fill="#181617"/>
<path transform="translate(1070,101)" d="m0 0 2 3 6 11 2 12 2 1-2 5 3 1-3 1h-24l-1 3-1-3-11-1v-1l35-1-1-3h2l-4-14-4-5v-2l-2-1h2z" fill="#181617"/>
<path transform="translate(1577,352)" d="m0 0h5v2l-8 4 12 5 1 3-16-4 1 5-4 1-1-1v-7l2-4 4-3z" fill="#F0F0EF"/>
<path transform="translate(1124,800)" d="m0 0h9v16l-3 2-3-2-4-13z" fill="#F2F2F1"/>
<path transform="translate(1239,725)" d="m0 0 5 2v2h14l5 1v5h-5l-1-3-3 3-13 3v-2l4-2-2-5h-2z" fill="#EEEEED"/>
<path transform="translate(748,176)" d="m0 0 11 1 9 4-1 5-3 2v-3l-11-1v-2l-5-2z" fill="#F2F2F1"/>
<path transform="translate(186,384)" d="m0 0 10 3 3 3v4l-4-1-3-4h-3l2 2-1 4-9 4h-3l2-4 3-1 2-5z" fill="#F0F0EF"/>
<path transform="translate(1561,650)" d="m0 0 2 1-2 18h-2l-2-5v-5l-5 2-2 8-4-1 2-5v-7h6l4 2 2-6z" fill="#F2F2F1"/>
<path transform="translate(1215,132)" d="m0 0h15l39 1v1l-11 1-23 1-2 4-1-3 1-2h-19z" fill="#181617"/>
<path transform="translate(665,893)" d="m0 0 6 1v3l-3 1-1 25h-2l-1-26h-13l-2 2-2-4z" fill="#181617"/>
<path transform="translate(1274,718)" d="m0 0h12v4l-5 2-3-1-1 1-2 3h-10l-1-2 1-2 6-1h2v-3z" fill="#F2F2F1"/>
<path transform="translate(1009,848)" d="m0 0h3v51h-3z" fill="#181617"/>
<path transform="translate(1053,856)" d="m0 0 37 1v1l-16 1-5 1-2 3v-3l-6 1-4-1-25-2v-1z" fill="#181617"/>
<path transform="translate(649,800)" d="m0 0 2 4v1l5 1 6 3v2l-2 1h-15l-2-5 4-1 1-5z" fill="#F2F2F1"/>
<path transform="translate(944,520)" d="m0 0 2 1 2 18v20l-2 4-1-5z" fill="#F2F2F1"/>
<path transform="translate(1193,896)" d="m0 0 6 1 4 4 1 3-6 4h-5l-5 2-7 2-2 2-4-1v-2l17-6 9-2-3-3-5-2z" fill="#181617"/>
<path transform="translate(1325,252)" d="m0 0 9 1 8 5-1 3-4-1-7-3-5-1-5 3h-3v-2z" fill="#F2F2F1"/>
<path transform="translate(1216,146)" d="m0 0 1 3 3 1-2 1-1 6v35l1 2-2 4-1 4-1-1 1-51-2-1h2z" fill="#181617"/>
<path transform="translate(508,334)" d="m0 0 3 1-1 4-6 2-6 4-4 4h-2l1-4 4-5z" fill="#F2F2F1"/>
<path transform="translate(234,705)" d="m0 0 6 2 8 5v4l-6-1-9-6z" fill="#F2F2F1"/>
<path transform="translate(1067,239)" d="m0 0h2v7l2 5-1 10-1 6h-2v-10l1-6-5 2v-2l4-3-1-6-5 1-2-2z" fill="#181617"/>
<path transform="translate(689,77)" d="m0 0 6 1 3 3 4 9 6 7-3 1-4-6-3 1-4 5h-2v-2h2l2-4 1-3-3-8z" fill="#181617"/>
<path transform="translate(1038,533)" d="m0 0h37v2l-8 1-29-1z" fill="#181617"/>
<path transform="translate(1568,642)" d="m0 0 7 1 7 5v3l-7-1-4-4-1 1h-5l1-4z" fill="#F2F2F1"/>
<path transform="translate(736,259)" d="m0 0h1l1 9 2 1h-3v22l-2 1v-2h-3v-2h3l-1-19 1-9z" fill="#181617"/>
<path transform="translate(1304,798)" d="m0 0h31l7 1-1 2h-5l-1 7h-1l-1-7h-25l-4-2z" fill="#181617"/>
<path transform="translate(869,791)" d="m0 0h1l1 7 21 1v1l-30 1h-16v-2h23z" fill="#181617"/>
<path transform="translate(950,352)" d="m0 0 4 1v17l-4-1-1-4v-10z" fill="#F2F2F1"/>
<path transform="translate(326,231)" d="m0 0 5 2h2v2h5l4-2-1 4-1 1h-16l1-6z" fill="#F2F2F1"/>
<path transform="translate(1793,660)" d="m0 0 18 1 24 3v1h-15l-22-2-5-1z" fill="#181617"/>
<path transform="translate(271,332)" d="m0 0 3 1-3 5-5 6-1 7-3-1-1-4 4-8z" fill="#F2F2F1"/>
<path transform="translate(1e3 245)" d="m0 0h2l1 24h8l-2 2-6 1-1 7h-1l-1-12z" fill="#181617"/>
<path transform="translate(1252,741)" d="m0 0 7 2-1 4-6-1v2h-9l-2-1v-3h7z" fill="#EBEBEA"/>
<path transform="translate(1749,606)" d="m0 0 1 4-5 4-9 5-11 6-3-1 10-6 8-4 4-4z" fill="#F2F2F1"/>
<path transform="translate(549,905)" d="m0 0h2v16l4-1 2 4-6-2v11l-2 1z" fill="#181617"/>
<path transform="translate(562,690)" d="m0 0 4 1 2 7-4 6-5-1v-4l4-1z" fill="#F2F2F1"/>
<path transform="translate(910,445)" d="m0 0 6 3h5v3l-5 1-7-2v5h-4l2-9z" fill="#F2F2F1"/>
<path transform="translate(1337,678)" d="m0 0h2l-1 3h-2v2l4 1h-5l-1 48h-1v-47l2-5z" fill="#181617"/>
<path transform="translate(1581,633)" d="m0 0 2 1-2 6-2 4-5-2v-3l-6 1-1-4h7l5 1z" fill="#F2F2F1"/>
<path transform="translate(316,231)" d="m0 0h3v5l-3 3h-9l-2-2 1-5 3 2v2l5-1z" fill="#F2F2F1"/>
<path transform="translate(1122,316)" d="m0 0 5 1 5 7 5 5 3 6-4-1-2-6-4-2-5-5-4-2z" fill="#F2F2F1"/>
<path transform="translate(187,266)" d="m0 0h4v6l4-1 3-3 1 4-5 4-6-1-2-3v-5z" fill="#F2F2F1"/>
<path transform="translate(370,867)" d="m0 0 1 4-4 8v2l2-3h2v-4h2l1 4-6 5-5 1 2-11h2l2-5z" fill="#181617"/>
<path transform="translate(1223,692)" d="m0 0 1 4-2 4-1 9-6 1v-4z" fill="#CACAC9"/>
<path transform="translate(1169,380)" d="m0 0 5 1 5 6v2l-8-1-2 1-6-1v-2l7 1-2-5z" fill="#F2F2F1"/>
<path transform="translate(222,345)" d="m0 0h4l-1 4-7 3v8l-5-3v-5l8-6z" fill="#F2F2F1"/>
<path transform="translate(43,506)" d="m0 0h10l4 4-2 1-7-3h-3v6l-11 1 1-3 6-1 1-4z" fill="#181617"/>
<path transform="translate(188,140)" d="m0 0 3 1-16 8-5 1v-2h-7l-1 3-1-4 12-2 13-4z" fill="#181617"/>
<path transform="translate(42,521)" d="m0 0 6 1 3 2-1 4-5 3-1-2 3-2 1-3-5 1-2 3 2 2h-6l-1-3 5-5z" fill="#181617"/>
<path transform="translate(58,448)" d="m0 0h4v13h3l-1 4-4-2-2-3-1-11z" fill="#181617"/>
<path transform="translate(167,448)" d="m0 0 13 1-1 8-4-1-1-4-7-2z" fill="#F2F2F1"/>
<path transform="translate(1425,757)" d="m0 0 2 1-12 11-6 4-2 1 2-5v-6l-3-1h4l1 6 4-3h2l1-4 6-3z" fill="#181617"/>
<path transform="translate(434,352)" d="m0 0h1l1 12v21l-3 1z" fill="#181617"/>
<path transform="translate(772,130)" d="m0 0 5 1-2 10-6 6-4 1 2-4 6-8 1-3z" fill="#181617"/>
<path transform="translate(813,624)" d="m0 0 6 1 4 4v2h2l1 4-9-5-5-3z" fill="#F2F2F1"/>
<path transform="translate(192,523)" d="m0 0 3 1-2 9-2 5-2-1v-8l2-5z" fill="#F2F2F1"/>
<path transform="translate(161,581)" d="m0 0 3 1-9 8-6 2v-3l10-7z" fill="#F2F2F1"/>
<path transform="translate(258,285)" d="m0 0 5 1 3 1v4l-5-1-5 1h-3l1-3z" fill="#F2F2F1"/>
<path transform="translate(754,186)" d="m0 0h9l1 3-9 2h-5l-1-3z" fill="#D1D0D0"/>
<path transform="translate(1126,115)" d="m0 0 4 3 1 8-3 1-3-3-1-7z" fill="#EDEDEC"/>
<path transform="translate(246,786)" d="m0 0h1l1 11v10h-3v-20z" fill="#181617"/>
<path transform="translate(1589,641)" d="m0 0h5l-1 6h-2l-2-2-4 4h-2v-5z" fill="#F2F2F1"/>
<path transform="translate(264,365)" d="m0 0 5 3 1 4-4 2-2-2 2-3-3 3h-2l-1-5z" fill="#F2F2F1"/>
<path transform="translate(178,302)" d="m0 0h2l-1 4-11 5h-5v-2l10-4z" fill="#F2F2F1"/>
<path transform="translate(1603,670)" d="m0 0 4 1 5 2-1 2-5-1-4 6-3-1 2-5z" fill="#F2F2F1"/>
<path transform="translate(1185,627)" d="m0 0h2v6l6-1 5 3 1 5-4 2v-6l-10-2-1-5z" fill="#F2F2F1"/>
<path transform="translate(1060,665)" d="m0 0h10l-1 15-2 1v-14h-7z" fill="#181617"/>
<path transform="translate(1457,649)" d="m0 0 2 2 1 4 5 1-1 3-5 2-2 4h-2l2-6z" fill="#F2F2F1"/>
<path transform="translate(900,596)" d="m0 0 3 1-3 9-5 4-1-3 5-8z" fill="#F2F2F1"/>
<path transform="translate(178,344)" d="m0 0h2l-1 5-6 7h-3l1-4z" fill="#F2F2F1"/>
<path transform="translate(743,188)" d="m0 0h6l1 4-12 5-2-1z" fill="#E4E3E3"/>
<path transform="translate(1460,620)" d="m0 0 1 3-3 8-3 1-3-2 2-4h2l2-4z" fill="#F2F2F1"/>
<path transform="translate(1227,695)" d="m0 0 4 2 1 2-1 4-5 1-1-7z" fill="#E8E8E7"/>
<path transform="translate(1167,849)" d="m0 0 3 1-3 6-3 10-2 1 1-8 2-8z" fill="#F2F2F1"/>
<path transform="translate(1296,547)" d="m0 0h1v30l-4-2v-2h2z" fill="#181617"/>
<path transform="translate(902,816)" d="m0 0 2 1-6 5-16 4v-2l4-2 9-2z" fill="#181617"/>
<path transform="translate(176,403)" d="m0 0 5 2 4 4-4 2-6-4z" fill="#F2F2F1"/>
<path transform="translate(173,383)" d="m0 0 6 2 1 5h-5l-4-3z" fill="#F2F2F1"/>
<path transform="translate(562,162)" d="m0 0 5 2-1 13-4-1 1-12z" fill="#181617"/>
<path transform="translate(1427,547)" d="m0 0h5l3 3-1 3-4-1-9-3v-1z" fill="#F2F2F1"/>
<path transform="translate(1066,798)" d="m0 0 3 1v15l3 3 1-3v4h-5l-1 4z" fill="#1D1B1C"/>
<path transform="translate(949,376)" d="m0 0h3l2 5 1 6-2 1-3-2z" fill="#F2F2F1"/>
<path transform="translate(1223,703)" d="m0 0 3 1 2 4-2 6h-4v-5l2-3z" fill="#F2F2F1"/>
<path transform="translate(46,454)" d="m0 0 1 4-1 2-4 2h-7l1-4 2 1 5-2z" fill="#181617"/>
<path transform="translate(1140,305)" d="m0 0h2l3 8 1 8-4-4-2-8z" fill="#F2F2F1"/>
<path transform="translate(1408,276)" d="m0 0 4 1 7 3 1 3-3 1-7-4z" fill="#F2F2F1"/>
<path transform="translate(1432,261)" d="m0 0h8l2 3 2 9-2 3-2-11-7-2z" fill="#181617"/>
<path transform="translate(700,419)" d="m0 0 2 2 1 8h2l2 6h-4l-3-11-1-3z" fill="#181617"/>
<path transform="translate(1235,401)" d="m0 0h18v2h-10l-1 3v-3h-7z" fill="#181617"/>
<path transform="translate(228,401)" d="m0 0 4 1 3 8h-4v-3l-4-2z" fill="#F2F2F1"/>
<path transform="translate(755,289)" d="m0 0 1 4-4 17v2h-2l1-9 3-13z" fill="#181617"/>
<path transform="translate(559,691)" d="m0 0 3 1-5 7-4-1 1-4z" fill="#F2F2F1"/>
<path transform="translate(690,649)" d="m0 0 7 1 7 2v2h-7l-6-2z" fill="#181617"/>
<path transform="translate(732,171)" d="m0 0 3 1-1 7 3 3-4 1-2-6v-5z" fill="#F2F2F1"/>
<path transform="translate(1096,900)" d="m0 0h2l-2 5-4 1-5-3v-2z" fill="#181617"/>
<path transform="translate(1151,764)" d="m0 0 11 1 1 3-2 2v-2l-10-1z" fill="#F2F2F1"/>
<path transform="translate(1629,654)" d="m0 0h2l-2 4-6 4h-3v-4z" fill="#F2F2F1"/>
<path transform="translate(1436,623)" d="m0 0 3 1 5 8v2l-4-1-4-6z" fill="#F2F2F1"/>
<path transform="translate(1071,861)" d="m0 0h2l4 7 1 2v9l-2-3-2-9-3-3z" fill="#181617"/>
<path transform="translate(1067,588)" d="m0 0h1l1 13h3v2h-3l-1 6h-1l-1-8z" fill="#181617"/>
<path transform="translate(72,544)" d="m0 0 6 2 4 4-1 1h-6l-2-3z" fill="#181617"/>
<path transform="translate(142,524)" d="m0 0 2 1-2 4-4 5-2 3-1-4 4-6z" fill="#F2F2F1"/>
<path transform="translate(362,848)" d="m0 0h2l1 13-2 7-2-1 1-14z" fill="#181617"/>
<path transform="translate(248,527)" d="m0 0h3l3 5v2h-5l-2-2z" fill="#F2F2F1"/>
<path transform="translate(1090,869)" d="m0 0v3l-10 14-1-3 6-8 3-5z" fill="#181617"/>
<path transform="translate(370,846)" d="m0 0h1l-1 14-3-1v-9z" fill="#181617"/>
<path transform="translate(364,820)" d="m0 0h3v13h-3z" fill="#181617"/>
<path transform="translate(942,509)" d="m0 0 4 1-1 9-3-1-1-8z" fill="#F2F2F1"/>
<path transform="translate(253,320)" d="m0 0 2 1-1 6-1 2h-2v-2l-3-1v-2z" fill="#F2F2F1"/>
<path transform="translate(1245,717)" d="m0 0 5 1 2 4-4 1-3-1-1-4z" fill="#F2F2F1"/>
<path transform="translate(288,127)" d="m0 0h2l-2 6-7 8v-3z" fill="#181617"/>
<path transform="translate(1180,748)" d="m0 0h3v10h-4z" fill="#F2F2F1"/>
<path transform="translate(653,673)" d="m0 0 2 2-6 3-8 1 1-3 9-2z" fill="#181617"/>
<path transform="translate(1742,661)" d="m0 0 2 4-7 5-4-1-1-4 5 2 3-2z" fill="#181617"/>
<path transform="translate(936,541)" d="m0 0h2l1 2v13l-2-1z" fill="#F2F2F1"/>
<path transform="translate(786,431)" d="m0 0h1v6l4 2-3 1-2 5-1-3v-2l-4-2h5l-1-6z" fill="#181617"/>
<path transform="translate(49,214)" d="m0 0 5 4 5 9v2h-2l-8-13z" fill="#181617"/>
<path transform="translate(479,96)" d="m0 0h2v6l-6 4h-2l2-4z" fill="#181617"/>
<path transform="translate(1224,880)" d="m0 0h4l2 5 4 4 1-2v4l-6-2z" fill="#181617"/>
<path transform="translate(1170,738)" d="m0 0 5 5-1 4-5-3z" fill="#F2F2F1"/>
<path transform="translate(1589,648)" d="m0 0h2l-2 6h-6v-4h4z" fill="#F2F2F1"/>
<path transform="translate(1818,565)" d="m0 0h2l-2 4-7 3-3-1 8-5z" fill="#F2F2F1"/>
<path transform="translate(1040,251)" d="m0 0 4 4 3 8v3h-2l-5-13z" fill="#181617"/>
<path transform="translate(731,126)" d="m0 0 12 1v4h-3v-2l-3 1-5-1z" fill="#181617"/>
<path transform="translate(704,82)" d="m0 0 4 1 1 1v10l-2 1v-10h-3z" fill="#181617"/>
<path transform="translate(1461,768)" d="m0 0 9 1v5l-7-2z" fill="#181617"/>
<path transform="translate(993,732)" d="m0 0h5v2l-7 4-4 1v-2h2v-2z" fill="#F2F2F1"/>
<path transform="translate(1545,705)" d="m0 0h11l7 4-2 1-5-2-1-1-7 1-2 1z" fill="#181617"/>
<path transform="translate(1124,625)" d="m0 0 7 3 4 1 1 3-2 1-9-5z" fill="#F2F2F1"/>
<path transform="translate(885,492)" d="m0 0 2 1-2 9-3 1 1-8z" fill="#F2F2F1"/>
<path transform="translate(65,448)" d="m0 0h5l1 3-4 4-2-2z" fill="#181617"/>
<path transform="translate(133,397)" d="m0 0 2 1-1 7-2 4h-2l2-11z" fill="#F2F2F1"/>
<path transform="translate(1189,332)" d="m0 0 3 1v2l-4 2 2 5-4-1-1-4z" fill="#F2F2F1"/>
<path transform="translate(1327,267)" d="m0 0 5 1-2 6-2 2-1-2z" fill="#262425"/>
<path transform="translate(1324,266)" d="m0 0 1 2-2 9h-2l-1-8z" fill="#1F1D1E"/>
<path transform="translate(1568,642)" d="m0 0 5 1v2l-3 2h-5l1-4z" fill="#EAEAE9"/>
<path transform="translate(1414,573)" d="m0 0h5v3l-6 2h-3v-2z" fill="#F2F2F1"/>
<path transform="translate(53,533)" d="m0 0 4 1 5 2v3l-8-2z" fill="#181617"/>
<path transform="translate(67,509)" d="m0 0h2l1 7 5 6-4-2-5-5v-5z" fill="#181617"/>
<path transform="translate(1341,219)" d="m0 0 1 2h-2l3 10-3-1-3-7v-3z" fill="#181617"/>
<path transform="translate(567,918)" d="m0 0 4 1 5 2-1 2-8-1-1-3z" fill="#181617"/>
<path transform="translate(1113,868)" d="m0 0 11 2-1 3-6-1-4-2z" fill="#F2F2F1"/>
<path transform="translate(46,553)" d="m0 0h2l-1 4h-8v-3z" fill="#181617"/>
<path transform="translate(1930,550)" d="m0 0h1v7l-3 3-3-2z" fill="#181617"/>
<path transform="translate(1955,548)" d="m0 0 8 3v3l-6-1-3-2z" fill="#181617"/>
<path transform="translate(1386,505)" d="m0 0h4l-1 6-7-1z" fill="#181617"/>
<path transform="translate(102,485)" d="m0 0 4 4-2 5h-2l-1-8z" fill="#181617"/>
<path transform="translate(716,448)" d="m0 0h2l-2 12h-3l2-10z" fill="#181617"/>
<path transform="translate(233,425)" d="m0 0 5 1-1 4-6-1z" fill="#F2F2F1"/>
<path transform="translate(950,410)" d="m0 0 1 4-2 6-5-2 3-3z" fill="#EAEAE9"/>
<path transform="translate(150,410)" d="m0 0 4 1 4 6-1 2-5-4z" fill="#F2F2F1"/>
<path transform="translate(313,397)" d="m0 0h3l-2 6-4 1-1-5z" fill="#181617"/>
<path transform="translate(1241,284)" d="m0 0 4 1 1 6-4-1-2-2z" fill="#F2F2F1"/>
<path transform="translate(1286,272)" d="m0 0 3 1-2 9h-2v-7z" fill="#F2F2F1"/>
<path transform="translate(736,136)" d="m0 0 6 1-6 4-1 3h-2l-1-4z" fill="#181617"/>
<path transform="translate(247,133)" d="m0 0h5l3 9-2 3-3-9z" fill="#181617"/>
<path transform="translate(1276,756)" d="m0 0 1 3 5 2 1 3h-6z" fill="#F2F2F1"/>
<path transform="translate(250,353)" d="m0 0 4 2v6h-4z" fill="#F2F2F1"/>
<path transform="translate(369,231)" d="m0 0h7l2 1v3l-4-2-2 2h-3z" fill="#F2F2F1"/>
<path transform="translate(1197,948)" d="m0 0 13 6-4 1-8-4z" fill="#181617"/>
<path transform="translate(793,897)" d="m0 0 5 1 2 3-4 1-4-2z" fill="#181617"/>
<path transform="translate(1262,750)" d="m0 0h4l1 5h-5l-1-4z" fill="#F2F2F1"/>
<path transform="translate(1858,654)" d="m0 0h1v13l-3-1 1-11z" fill="#181617"/>
<path transform="translate(1067,617)" d="m0 0 2 2v7l2 4-4 1-1-2z" fill="#181617"/>
<path transform="translate(81,529)" d="m0 0 1 2-3 9-2-1 1-7z" fill="#181617"/>
<path transform="translate(1817,482)" d="m0 0 4 1v3l4-1-1 4-4-1-3-4z" fill="#F2F2F1"/>
<path transform="translate(902,470)" d="m0 0 8 5-1 3-4-2-3-3z" fill="#F2F2F1"/>
<path transform="translate(42,468)" d="m0 0 8 6-1 3-1-2-8-4v-2z" fill="#181617"/>
<path transform="translate(811,362)" d="m0 0h4l-1 5-4 1v-4z" fill="#F2F2F1"/>
<path transform="translate(877,292)" d="m0 0h3l-1 4-7 1v-3z" fill="#F2F2F1"/>
<path transform="translate(161,155)" d="m0 0h6l-2 4-5 1z" fill="#F2F2F1"/>
</svg>
